<svg viewBox="0 0 702.5 90.59" xmlns="http://www.w3.org/2000/svg" xmlns:xlink="http://www.w3.org/1999/xlink"><radialGradient id="a" cx="697.94" cy="379.31" gradientUnits="userSpaceOnUse" r="20.08"><stop offset="0" stop-color="#ffe800"/><stop offset=".58" stop-color="#ffe800" stop-opacity=".6"/><stop offset=".74" stop-color="#fff100" stop-opacity=".35"/><stop offset=".92" stop-color="#fffb00" stop-opacity=".1"/><stop offset="1" stop-color="#ff0" stop-opacity="0"/></radialGradient><path d="m697.9 345 57.3 39.29-57.2 38.71-57.2-38.71zm.2 67.22 41.58-28.14-41.68-28.57-41.52 28.57z" fill="#f00" transform="translate(-331.75 -345)"/><path d="m361.33 36.1h9.85v33.21h-9.85z" fill="#f00"/><path d="m716.34 379a18.34 18.34 0 0 0 -36.68 0z" fill="url(#a)" transform="translate(-331.75 -345)"/><g fill="#f00"><path d="m689.5 379a8.51 8.51 0 0 1 17 0z" transform="translate(-331.75 -345)"/><path d="m350.03 33.14h6.67v.84h-6.67z"/><path d="m375.91 33.14h6.67v.84h-6.67z"/><path d="m356.79 32.24.19-.57-3.61-.86z"/><path d="m357.37 30.7-4.25-1.93 4.44 1.35.19.02z"/><path d="m358.14 29.35-5.79-4.06 6.37 3.28z"/><path d="m359.49 28-2.51-3.01 3.09 2.43z"/><path d="m360.65 26.84-3.47-6.76 4.63 6.18z"/><path d="m362.58 25.87-1.16-4.63 2.13 4.24z"/><path d="m364.5 25.29v-6.49l1.17 6.3z"/><path d="m366.64 25.1 1.35-8.11v8.3z"/><path d="m368.95 25.48 2.71-3.66-1.85 4.05z"/><path d="m370.69 26.26 5.37-4.44-4.4 4.95z"/><path d="m372.43 27.42 3.4-1.48-2.63 2.25z"/><path d="m374.13 29.15 6.02-1.15-5.4 2.08z"/><path d="m375.13 31.28 4.25.38-3.86.58z"/></g><text font-family="Lusitana-Bold, Lusitana" font-size="72" font-weight="700" transform="translate(5.83 66.03)"><tspan letter-spacing=".02em">ISH</tspan><tspan letter-spacing="-.12em" x="132.48" y="0">W</tspan><tspan letter-spacing=".02em" x="201.74" xml:space="preserve" y="0">AR       </tspan><tspan x="419.76" y="0">GROUP</tspan></text></svg>