<svg xmlns="http://www.w3.org/2000/svg" width="222.001" height="158.799" viewBox="0 0 222.001 158.799"><defs><style>.a{fill:none;}.b{fill:#2e3831;}</style></defs><g transform="translate(126.423 284.018)"><path class="a" d="M-14.491-151.039c-.364-1.214-.681-2.443-.954-3.706-.286,1.3-.616,2.556-1,3.8a52.509,52.509,0,0,1-16.518,25H2.4A52.88,52.88,0,0,1-14.491-151.039Z"/><path class="a" d="M-120.654-146.58l9.762-2.224-.644-2.78c-.042-.187-.112-.42-.2-.7a4.3,4.3,0,0,0-.414-.852,4.084,4.084,0,0,0-.7-.83,3.165,3.165,0,0,0-1.055-.641,5.019,5.019,0,0,0-1.5-.3,7.585,7.585,0,0,0-2.041.216,8.545,8.545,0,0,0-1.963.684,3.978,3.978,0,0,0-1.355,1.066,3.273,3.273,0,0,0-.656,1.511,5.311,5.311,0,0,0,.122,2.032Z"/><path class="a" d="M-109.334-228.365l-.016.03,4.1,4.916,2.2-3.781Z"/><path class="a" d="M34.828-258.407a4.138,4.138,0,0,0,1.975.641,4,4,0,0,0,1.822-.336,5.191,5.191,0,0,0,1.558-1.062,7.178,7.178,0,0,0,1.2-1.522,7.33,7.33,0,0,0,.773-1.788,5.24,5.24,0,0,0,.186-1.877,4.008,4.008,0,0,0-.568-1.755,4.654,4.654,0,0,0-3.481-2.07,4.128,4.128,0,0,0-1.825.336,5.13,5.13,0,0,0-1.552,1.057,7.446,7.446,0,0,0-1.973,3.31h0a5.228,5.228,0,0,0-.193,1.874,4.126,4.126,0,0,0,.575,1.762A4.232,4.232,0,0,0,34.828-258.407Z"/><path class="a" d="M-97.418-238.286v0a2.415,2.415,0,0,0,.293-.97,1.927,1.927,0,0,0-.164-.941,2.7,2.7,0,0,0-2.361-1.426A2.235,2.235,0,0,0-101.2-240.6l-2.584,3.4,3.58,2.725,2.17-2.844A7.2,7.2,0,0,0-97.418-238.286Z"/><path class="a" d="M-32.909-159.66a48.919,48.919,0,0,0,6.482-4.143l4.109-3.087-3.1,4.1a49.891,49.891,0,0,0-4.219,6.53,50.776,50.776,0,0,0-5.7,30.164,51.514,51.514,0,0,0,17.509-25.271,48.743,48.743,0,0,0,1.667-7.6l.717-5.09.714,5.09a50.254,50.254,0,0,0,1.621,7.51,50.782,50.782,0,0,0,17.4,25.436A51.526,51.526,0,0,0-1.2-156.26a48.836,48.836,0,0,0-4.2-6.553l-3.093-4.109,4.106,3.1a49.937,49.937,0,0,0,6.455,4.164,50.783,50.783,0,0,0,30.31,5.685A52.363,52.363,0,0,0,7-171.567a48.711,48.711,0,0,0-7.514-1.652l-5.09-.726,5.093-.707a49.687,49.687,0,0,0,7.6-1.633,50.779,50.779,0,0,0,25.366-17.307,52.37,52.37,0,0,0-30.389,5.5,49.156,49.156,0,0,0-6.483,4.142l-4.113,3.086,3.1-4.1a49.7,49.7,0,0,0,4.221-6.527,50.776,50.776,0,0,0,5.7-30.171,51.52,51.52,0,0,0-17.51,25.27,49.254,49.254,0,0,0-1.666,7.6l-.717,5.09-.714-5.09a49.786,49.786,0,0,0-1.621-7.51,50.783,50.783,0,0,0-17.4-25.438,51.527,51.527,0,0,0,5.49,30.249,48.924,48.924,0,0,0,4.2,6.552l3.091,4.108-4.1-3.1a49.948,49.948,0,0,0-6.456-4.164,50.776,50.776,0,0,0-30.271-5.69,51.527,51.527,0,0,0,25.335,17.591,48.888,48.888,0,0,0,7.514,1.654l5.09.729-5.093.7a49.926,49.926,0,0,0-7.6,1.632,50.787,50.787,0,0,0-25.352,17.288A51.533,51.533,0,0,0-32.909-159.66Z"/><path class="a" d="M-123.871-168.851v.037l6.119,1.91-.2-4.366Z"/><path class="a" d="M1.39-158.381c-1.116-.6-2.21-1.245-3.3-1.944.716,1.118,1.374,2.241,1.982,3.387a52.325,52.325,0,0,1,5.847,31h37.27A49.949,49.949,0,0,0,41.1-137.46v-.007a52.308,52.308,0,0,0-7.874-15.358A52.885,52.885,0,0,1,1.39-158.381Z"/><path class="a" d="M-38.354-172.858c1.243-.373,2.5-.7,3.8-.975-1.266-.28-2.5-.6-3.706-.975A52.332,52.332,0,0,1-65.032-193.52a50.832,50.832,0,0,0-32.692,19.675,51.579,51.579,0,0,0,33.019,19.453A52.9,52.9,0,0,1-38.354-172.858Z"/><path class="a" d="M-32.224-189.365c1.116.6,2.21,1.245,3.3,1.944-.716-1.12-1.372-2.243-1.98-3.387a52.329,52.329,0,0,1-5.717-32.046,50.845,50.845,0,0,0-37.024-9.2,51.586,51.586,0,0,0,9.611,37.131A52.879,52.879,0,0,1-32.224-189.365Z"/><path class="a" d="M-30.912-156.938c.615-1.141,1.276-2.26,2-3.375-1.094.7-2.192,1.337-3.31,1.931a52.328,52.328,0,0,1-32.195,5.7,50.9,50.9,0,0,0-9.666,26.745h37.514A52.873,52.873,0,0,1-30.912-156.938Z"/><path class="a" d="M-16.351-196.724c.364,1.21.681,2.44.956,3.706.284-1.3.615-2.558,1-3.8A52.329,52.329,0,0,1,4.229-223.524a50.831,50.831,0,0,0-19.688-32.783,51.569,51.569,0,0,0-19.474,33.144A52.88,52.88,0,0,1-16.351-196.724Z"/><path class="a" d="M7.515-174.907c-1.24.373-2.5.7-3.8.975,1.266.28,2.5.6,3.706.977A52.334,52.334,0,0,1,34.2-154.235a50.832,50.832,0,0,0,32.684-19.672,50.033,50.033,0,0,0-16.588-14.184h-.007a52.32,52.32,0,0,0-16.416-5.289A52.881,52.881,0,0,1,7.515-174.907Z"/><path class="a" d="M.08-190.808c-.615,1.141-1.276,2.261-2,3.375,1.092-.7,2.191-1.338,3.31-1.932a52.332,52.332,0,0,1,32.173-5.7,50.841,50.841,0,0,0,9.281-37.13,51.581,51.581,0,0,0-37.192,9.656A52.888,52.888,0,0,1,.08-190.808Z"/><path class="a" d="M-69.468-262.433a7.55,7.55,0,0,0,1.156,1.562l0,.005a5.188,5.188,0,0,0,1.525,1.115,4.085,4.085,0,0,0,1.807.392,4.713,4.713,0,0,0,3.544-1.963,4.078,4.078,0,0,0,.625-1.74,5.2,5.2,0,0,0-.131-1.884,7.492,7.492,0,0,0-1.865-3.37,5.326,5.326,0,0,0-1.522-1.111,4.138,4.138,0,0,0-1.811-.394,4.209,4.209,0,0,0-1.992.582,4.118,4.118,0,0,0-1.548,1.384,4.023,4.023,0,0,0-.629,1.738,5.155,5.155,0,0,0,.132,1.884A7.228,7.228,0,0,0-69.468-262.433Z"/><path class="a" d="M72.106-225.843h0a5.245,5.245,0,0,0-1.125,1.511,4.113,4.113,0,0,0-.414,1.807,4.722,4.722,0,0,0,1.926,3.565,4.085,4.085,0,0,0,1.736.644,5.287,5.287,0,0,0,1.884-.115,7.432,7.432,0,0,0,1.811-.687,7.285,7.285,0,0,0,1.574-1.144,5.218,5.218,0,0,0,1.129-1.508,4.048,4.048,0,0,0,.411-1.809,4.653,4.653,0,0,0-1.926-3.559,4.128,4.128,0,0,0-1.732-.648,5.382,5.382,0,0,0-1.884.111,7.669,7.669,0,0,0-1.814.693A7.6,7.6,0,0,0,72.106-225.843Z"/><path class="b" d="M-120.071-194.9a2.872,2.872,0,0,0,1.52.009,2.773,2.773,0,0,0,1.149-.686,5.258,5.258,0,0,0,.9-1.147c.264-.444.508-.9.745-1.367s.463-.932.688-1.388a6.949,6.949,0,0,1,.733-1.186,2.559,2.559,0,0,1,.881-.75,1.6,1.6,0,0,1,1.137-.082,2.129,2.129,0,0,1,1.055.559,2.047,2.047,0,0,1,.512.907,3.509,3.509,0,0,1,.106,1.118,6.852,6.852,0,0,1-.174,1.156,5.373,5.373,0,0,1-.514,1.322,3.5,3.5,0,0,1-.834,1.036,2.845,2.845,0,0,1-1.139.575,2.925,2.925,0,0,1-1.437-.03l-.387,1.585a4.641,4.641,0,0,0,2.077.073,3.952,3.952,0,0,0,1.644-.787,5.038,5.038,0,0,0,1.207-1.452,7.464,7.464,0,0,0,.752-1.926,7.8,7.8,0,0,0,.23-1.78,4.965,4.965,0,0,0-.266-1.735,3.774,3.774,0,0,0-.871-1.43,3.236,3.236,0,0,0-1.6-.872,3.3,3.3,0,0,0-1.63-.041,3.149,3.149,0,0,0-1.242.666,4.876,4.876,0,0,0-.958,1.127c-.278.444-.541.9-.778,1.365s-.467.93-.688,1.385a7.991,7.991,0,0,1-.693,1.2,2.735,2.735,0,0,1-.815.77,1.346,1.346,0,0,1-1.022.1,2.031,2.031,0,0,1-.968-.49,1.9,1.9,0,0,1-.5-.792,2.8,2.8,0,0,1-.125-.993,5.651,5.651,0,0,1,.148-1.059,3.707,3.707,0,0,1,1.134-1.987l.006.008a2.707,2.707,0,0,1,2.2-.49l.388-1.578a4.5,4.5,0,0,0-1.877-.049,3.579,3.579,0,0,0-1.478.679,4.187,4.187,0,0,0-1.08,1.266,7,7,0,0,0-.674,1.74,6.511,6.511,0,0,0-.19,1.726,4.748,4.748,0,0,0,.3,1.625A3.347,3.347,0,0,0-120.071-194.9Z"/><path class="b" d="M-107.332-205.9l-9.961-4.024.016-.036,11.466.283.549-1.354-8.445-7.762.013-.033,9.958,4.027.611-1.512L-115.1-221.15l-.881,2.176,8.527,7.854-11.581-.292-.879,2.179,11.969,4.839Z"/><path class="b" d="M-101.625-219.02l-2.636-3.2,2.741-4.724,4.071.733.953-1.641-13.7-2.124-.949,1.642,8.639,10.833Zm-7.725-9.315.016-.03,6.288,1.165-2.2,3.781Z"/><path class="b" d="M-94.664-230.265l-4.385-3.336,2.537-3.343a2.356,2.356,0,0,1,.77-.686,1.772,1.772,0,0,1,.773-.181,2.176,2.176,0,0,1,.8.174c.268.114.542.249.822.4a6.332,6.332,0,0,1,.827.493l.747.524a4.8,4.8,0,0,0,.663.4,1.053,1.053,0,0,0,.578.134l1.162-1.522a2.426,2.426,0,0,1-.845-.127,6.291,6.291,0,0,1-.836-.381,7.877,7.877,0,0,1-.819-.51c-.271-.185-.537-.368-.8-.54-.272-.157-.542-.3-.815-.423a2.8,2.8,0,0,0-.808-.23,1.909,1.909,0,0,0-.822.078,2.281,2.281,0,0,0-.843.51l-.026-.024a2.764,2.764,0,0,0,.07-2.093,3.877,3.877,0,0,0-1.315-1.67,3.08,3.08,0,0,0-2.6-.674,4.2,4.2,0,0,0-2.466,1.741l-3.678,4.836L-95.7-228.9Zm-9.122-6.939,2.584-3.4a2.235,2.235,0,0,1,1.552-1.022,2.7,2.7,0,0,1,2.361,1.426,1.927,1.927,0,0,1,.164.941,2.415,2.415,0,0,1-.293.97v0a7.2,7.2,0,0,1-.618.963l-2.17,2.844Z"/><path class="b" d="M-94.378-248.528l8.261,7.946,1.19-1.236-8.258-7.946,2.982-3.1-1.045-1-7.153,7.439,1.039,1Z"/><path class="b" d="M-82.62-256.792a2.671,2.671,0,0,0,2.483,1.189,5.375,5.375,0,0,0,1.423-.312c.486-.175.968-.364,1.451-.575s.949-.429,1.416-.629a6.666,6.666,0,0,1,1.315-.448,2.633,2.633,0,0,1,1.165-.016,1.647,1.647,0,0,1,.926.663,2.108,2.108,0,0,1,.454,1.1,2.034,2.034,0,0,1-.188,1.027,3.38,3.38,0,0,1-.629.928,6.593,6.593,0,0,1-.874.778,5.452,5.452,0,0,1-1.242.691,3.411,3.411,0,0,1-1.3.263,2.86,2.86,0,0,1-1.243-.281,2.878,2.878,0,0,1-1.088-.94l-1.311.967A4.591,4.591,0,0,0-78.307-251a3.9,3.9,0,0,0,1.766.448,5.13,5.13,0,0,0,1.858-.348,7.641,7.641,0,0,0,1.811-1,7.913,7.913,0,0,0,1.308-1.226,5.091,5.091,0,0,0,.9-1.5,3.774,3.774,0,0,0,.244-1.663,3.665,3.665,0,0,0-1.907-2.765,3.155,3.155,0,0,0-1.377-.282,4.677,4.677,0,0,0-1.463.259c-.49.16-.976.345-1.463.552s-.957.418-1.417.627a7.61,7.61,0,0,1-1.3.477,2.639,2.639,0,0,1-1.118.073,1.343,1.343,0,0,1-.86-.573,2.068,2.068,0,0,1-.43-.993,1.871,1.871,0,0,1,.12-.933,2.851,2.851,0,0,1,.533-.841,5.419,5.419,0,0,1,.8-.721,3.576,3.576,0,0,1,2.137-.8h0a2.685,2.685,0,0,1,2.006,1.022l1.307-.963a4.541,4.541,0,0,0-1.416-1.236,3.571,3.571,0,0,0-1.572-.425,4.111,4.111,0,0,0-1.64.289,7.051,7.051,0,0,0-1.627.907,6.5,6.5,0,0,0-1.25,1.207,4.632,4.632,0,0,0-.8,1.447,3.459,3.459,0,0,0-.152,1.571A3.4,3.4,0,0,0-82.62-256.792Z"/><path class="b" d="M-71.857-264.006a8.4,8.4,0,0,0,.888,2.41,8.193,8.193,0,0,0,1.573,2.035,6.351,6.351,0,0,0,2.069,1.327,5.627,5.627,0,0,0,2.412.369,6.844,6.844,0,0,0,4.714-2.61,5.588,5.588,0,0,0,.97-2.243,6.379,6.379,0,0,0-.026-2.459,8.471,8.471,0,0,0-2.459-4.44,6.353,6.353,0,0,0-2.068-1.331,5.73,5.73,0,0,0-2.421-.378,6.2,6.2,0,0,0-2.629.815,6.12,6.12,0,0,0-2.084,1.8,5.766,5.766,0,0,0-.967,2.252,6.442,6.442,0,0,0,.026,2.452Zm1.55-2.111a4.023,4.023,0,0,1,.629-1.738,4.118,4.118,0,0,1,1.548-1.384,4.209,4.209,0,0,1,1.992-.582,4.138,4.138,0,0,1,1.811.394,5.326,5.326,0,0,1,1.522,1.111,7.492,7.492,0,0,1,1.865,3.37,5.2,5.2,0,0,1,.131,1.884,4.078,4.078,0,0,1-.625,1.74,4.713,4.713,0,0,1-3.544,1.963,4.085,4.085,0,0,1-1.807-.392,5.188,5.188,0,0,1-1.525-1.115l0-.005a7.55,7.55,0,0,1-1.156-1.562,7.228,7.228,0,0,1-.707-1.8A5.155,5.155,0,0,1-70.307-266.117Z"/><path class="b" d="M-54.158-264.075a5.836,5.836,0,0,0,4.061-.3,5.294,5.294,0,0,0,3.066-2.509l-.009,0a4.86,4.86,0,0,0-.1-3.937l-2.969-7.7-1.6.618,2.962,7.693a3.644,3.644,0,0,1,.145,2.764,3.289,3.289,0,0,1-2.013,1.736,3.66,3.66,0,0,1-2.8.118,3.478,3.478,0,0,1-1.8-2.124l-2.969-7.692-1.6.618,2.96,7.7A4.682,4.682,0,0,0-54.158-264.075Z"/><path class="b" d="M-41.1-267.684l-1.285-5.362,4.077-.982a2.3,2.3,0,0,1,1.033-.045,1.646,1.646,0,0,1,.714.345,2.041,2.041,0,0,1,.5.641,7.782,7.782,0,0,1,.385.829,5.784,5.784,0,0,1,.329.907c.089.312.171.6.253.874a4.324,4.324,0,0,0,.258.729,1.06,1.06,0,0,0,.361.474l1.865-.448a2.209,2.209,0,0,1-.569-.637,5.331,5.331,0,0,1-.411-.825,7.764,7.764,0,0,1-.312-.907c-.089-.314-.177-.614-.277-.914a8.226,8.226,0,0,0-.36-.844,2.708,2.708,0,0,0-.484-.693,2.01,2.01,0,0,0-.688-.462,2.329,2.329,0,0,0-.972-.137l-.01-.033a2.738,2.738,0,0,0,1.381-1.581,3.866,3.866,0,0,0,.04-2.125,3.114,3.114,0,0,0-1.592-2.168,4.289,4.289,0,0,0-3.014-.207l-5.906,1.424,3.018,12.547Zm1.471-12.139a2.213,2.213,0,0,1,1.848.183,2.317,2.317,0,0,1,.9,1.421,2.28,2.28,0,0,1,.026,1.174,1.852,1.852,0,0,1-.463.838,2.5,2.5,0,0,1-.841.566v0a6.336,6.336,0,0,1-1.085.352l-3.484.838-1.052-4.374Z"/><path class="b" d="M-31.351-273.744a6.239,6.239,0,0,0,1.329,2.006,5.112,5.112,0,0,0,2,1.219,6.333,6.333,0,0,0,2.659.24,5.436,5.436,0,0,0,3.744-1.755,5.868,5.868,0,0,0,1.28-3.953l-1.71.177a4.963,4.963,0,0,1-.171,1.51,3.56,3.56,0,0,1-.622,1.259,3.321,3.321,0,0,1-1.052.888,3.865,3.865,0,0,1-1.473.441,4.385,4.385,0,0,1-2.025-.225,3.861,3.861,0,0,1-1.475-1.022,4.891,4.891,0,0,1-.963-1.63,8.344,8.344,0,0,1-.47-2.045,7.682,7.682,0,0,1,.049-1.969,5.011,5.011,0,0,1,.615-1.75,3.814,3.814,0,0,1,1.226-1.3,4.262,4.262,0,0,1,1.922-.641,4.077,4.077,0,0,1,2.4.442l0,.005a3.2,3.2,0,0,1,1.478,1.921l1.71-.181a4.8,4.8,0,0,0-.8-1.741A4.553,4.553,0,0,0-23-283.032a5.039,5.039,0,0,0-1.684-.622,6.493,6.493,0,0,0-1.933-.068,6.123,6.123,0,0,0-2.562.8,5.44,5.44,0,0,0-1.755,1.647,6.351,6.351,0,0,0-.933,2.265,8.57,8.57,0,0,0-.122,2.678A9.129,9.129,0,0,0-31.351-273.744Z"/><rect class="b" width="1.716" height="12.91" transform="translate(-17.513 -283.959) rotate(-0.568)"/><path class="b" d="M-10.152-281.345h.036l5.865,10.881,1.877.155,1.062-12.867-1.624-.131-.858,10.431H-3.83l-5.914-11-1.822-.142-1.062,12.864,1.621.135Z"/><path class="b" d="M1.755-271.334a5.847,5.847,0,0,0,1.574,1.821,6.055,6.055,0,0,0,2.414,1.078,6.2,6.2,0,0,0,2.3.059l0,0a4.237,4.237,0,0,0,2.151-1.019l.094,1.673,1.059.237,1.47-6.638L7.29-275.347l-.31,1.414,4.024.89a4.345,4.345,0,0,1-.589,1.566,3.713,3.713,0,0,1-1.074,1.13,3.774,3.774,0,0,1-1.477.592,4.624,4.624,0,0,1-1.815-.073,4.125,4.125,0,0,1-1.774-.824,4.207,4.207,0,0,1-1.1-1.414,5.044,5.044,0,0,1-.47-1.792,6.387,6.387,0,0,1,.139-1.959,8.082,8.082,0,0,1,.679-1.914,5.49,5.49,0,0,1,1.151-1.538,4.02,4.02,0,0,1,1.611-.914,4.109,4.109,0,0,1,2.069-.023,5.506,5.506,0,0,1,1.294.463,3.728,3.728,0,0,1,1.01.752,3.084,3.084,0,0,1,.641,1.04,3.452,3.452,0,0,1,.185,1.344l1.677.374a5.229,5.229,0,0,0-.247-2.044,4.509,4.509,0,0,0-.907-1.566,5.009,5.009,0,0,0-1.456-1.108,7.913,7.913,0,0,0-1.884-.667,5.913,5.913,0,0,0-2.746-.026,5.658,5.658,0,0,0-2.2,1.074,6.576,6.576,0,0,0-1.614,1.929,9.322,9.322,0,0,0-.965,2.539,7.391,7.391,0,0,0-.12,2.468A6.389,6.389,0,0,0,1.755-271.334Z"/><path class="b" d="M21.145-263.937a7.807,7.807,0,0,0,1.783,1.062,7.933,7.933,0,0,0,1.719.508,5.26,5.26,0,0,0,1.748.023,3.811,3.811,0,0,0,1.562-.63,3.663,3.663,0,0,0,1.419-3.037,3.137,3.137,0,0,0-.449-1.339,4.964,4.964,0,0,0-.963-1.127c-.389-.346-.8-.679-1.221-.987s-.842-.611-1.256-.9a7.783,7.783,0,0,1-1.066-.878,2.647,2.647,0,0,1-.627-.927,1.346,1.346,0,0,1,.059-1.029,2.138,2.138,0,0,1,.641-.881,1.867,1.867,0,0,1,.865-.359,2.733,2.733,0,0,1,1,.03,5.928,5.928,0,0,1,1.026.322,3.628,3.628,0,0,1,1.771,1.44l-.007-.007a2.689,2.689,0,0,1,.129,2.245l1.5.643a4.605,4.605,0,0,0,.348-1.848,3.549,3.549,0,0,0-.428-1.569,4.136,4.136,0,0,0-1.078-1.269,6.847,6.847,0,0,0-1.6-.942,6.713,6.713,0,0,0-1.674-.474,4.771,4.771,0,0,0-1.651.042,3.505,3.505,0,0,0-1.437.662,3.446,3.446,0,0,0-1.029,1.4,2.782,2.782,0,0,0-.26,1.492,2.851,2.851,0,0,0,.488,1.252,5.418,5.418,0,0,0,.989,1.073c.391.334.8.649,1.229.956s.845.607,1.256.907a6.687,6.687,0,0,1,1.052.914,2.626,2.626,0,0,1,.6.993,1.637,1.637,0,0,1-.106,1.133,2.1,2.1,0,0,1-.719.951,2.108,2.108,0,0,1-.98.359,3.274,3.274,0,0,1-1.12-.08,6.54,6.54,0,0,1-1.115-.354,5.7,5.7,0,0,1-1.224-.724,3.556,3.556,0,0,1-.883-.986,2.872,2.872,0,0,1-.385-1.222,2.915,2.915,0,0,1,.263-1.41l-1.5-.644a4.528,4.528,0,0,0-.411,2.044,3.935,3.935,0,0,0,.507,1.748A5,5,0,0,0,21.145-263.937Z"/><path class="b" d="M31.164-261.3a5.565,5.565,0,0,0,.893,2.272,6.875,6.875,0,0,0,4.636,2.758,5.615,5.615,0,0,0,2.422-.3,6.383,6.383,0,0,0,2.111-1.259,8.194,8.194,0,0,0,1.632-1.987,8.362,8.362,0,0,0,.967-2.375,6.457,6.457,0,0,0,.1-2.454,5.64,5.64,0,0,0-.9-2.281A6.073,6.073,0,0,0,41-268.79a6.2,6.2,0,0,0-2.6-.9,5.747,5.747,0,0,0-2.433.3,6.4,6.4,0,0,0-2.107,1.263l.005.009a8.4,8.4,0,0,0-1.635,1.978,8.588,8.588,0,0,0-.966,2.387A6.407,6.407,0,0,0,31.164-261.3Zm1.776-2.173h0a7.446,7.446,0,0,1,1.973-3.31,5.13,5.13,0,0,1,1.552-1.057,4.128,4.128,0,0,1,1.825-.336,4.654,4.654,0,0,1,3.481,2.07,4.008,4.008,0,0,1,.568,1.755,5.24,5.24,0,0,1-.186,1.877,7.33,7.33,0,0,1-.773,1.788,7.178,7.178,0,0,1-1.2,1.522,5.191,5.191,0,0,1-1.558,1.062,4,4,0,0,1-1.822.336,4.138,4.138,0,0,1-1.975-.641,4.232,4.232,0,0,1-1.506-1.431,4.126,4.126,0,0,1-.575-1.762A5.228,5.228,0,0,1,32.94-263.474Z"/><path class="b" d="M48.038-247.648l.891-1.141-5.4-4.191,7.035-9.05-1.353-1.056-7.922,10.191Z"/><path class="b" d="M56.291-240.961l-.01,0a4.839,4.839,0,0,0,3.551-1.712l5.8-5.861-1.221-1.207-5.8,5.861a3.657,3.657,0,0,1-2.462,1.262,3.278,3.278,0,0,1-2.4-1.125,3.651,3.651,0,0,1-1.259-2.5,3.5,3.5,0,0,1,1.193-2.52l5.8-5.859-1.219-1.205-5.8,5.858a4.675,4.675,0,0,0-1.654,3.662,5.86,5.86,0,0,0,1.937,3.582A5.257,5.257,0,0,0,56.291-240.961Z"/><path class="b" d="M60.217-234.882l1.068,1.351,8.984-7.114,2.673,3.374,1.134-.9-6.407-8.094-1.134.9L69.205-242Z"/><path class="b" d="M65.773-227.254,76.5-234.447l-.957-1.43-10.72,7.19Z"/><path class="b" d="M75.282-229.355a8.43,8.43,0,0,0-4.47,2.414,6.437,6.437,0,0,0-1.348,2.051,5.55,5.55,0,0,0-.392,2.41,6.85,6.85,0,0,0,2.558,4.744,5.619,5.619,0,0,0,2.232.992,6.462,6.462,0,0,0,2.456,0,8.385,8.385,0,0,0,2.422-.864,8.184,8.184,0,0,0,2.048-1.552,6.355,6.355,0,0,0,1.348-2.051,5.626,5.626,0,0,0,.4-2.414,6.1,6.1,0,0,0-.787-2.636,6.2,6.2,0,0,0-1.771-2.107,5.66,5.66,0,0,0-2.239-.987,6.437,6.437,0,0,0-2.459,0Zm2.1,1.569a4.128,4.128,0,0,1,1.732.648,4.653,4.653,0,0,1,1.926,3.559,4.048,4.048,0,0,1-.411,1.809,5.218,5.218,0,0,1-1.129,1.508,7.285,7.285,0,0,1-1.574,1.144,7.432,7.432,0,0,1-1.811.687,5.287,5.287,0,0,1-1.884.115,4.085,4.085,0,0,1-1.736-.644,4.722,4.722,0,0,1-1.926-3.565,4.113,4.113,0,0,1,.414-1.807,5.245,5.245,0,0,1,1.125-1.511h0a7.6,7.6,0,0,1,1.574-1.139,7.669,7.669,0,0,1,1.814-.693A5.382,5.382,0,0,1,77.378-227.786Z"/><path class="b" d="M74.46-211.014l9.708-3.616.013.036-7.354,9.935.654,1.762,12.1-4.5-.565-1.529L79.2-205.267l-.013-.036,7.435-10.023-.634-1.72-12.1,4.51Z"/><path class="b" d="M87.363-202.645a2.779,2.779,0,0,0-1.355.674,2.828,2.828,0,0,0-.719,1.13,5.335,5.335,0,0,0-.282,1.43c-.033.514-.054,1.039-.047,1.562s.01,1.045.017,1.545a7.086,7.086,0,0,1-.111,1.4,2.648,2.648,0,0,1-.451,1.066,1.613,1.613,0,0,1-.977.59,2.08,2.08,0,0,1-1.193-.023,2.063,2.063,0,0,1-.867-.578,3.433,3.433,0,0,1-.6-.947,6.745,6.745,0,0,1-.367-1.11,5.705,5.705,0,0,1-.145-1.414,3.458,3.458,0,0,1,.279-1.3,2.8,2.8,0,0,1,2.044-1.655l-.367-1.581a4.492,4.492,0,0,0-1.884.867,3.961,3.961,0,0,0-1.111,1.45,5.021,5.021,0,0,0-.418,1.837,7.782,7.782,0,0,0,.806,3.751,5.137,5.137,0,0,0,1.015,1.428,3.812,3.812,0,0,0,1.43.883,3.261,3.261,0,0,0,1.821.051,3.184,3.184,0,0,0,1.47-.7,3.144,3.144,0,0,0,.808-1.155,4.948,4.948,0,0,0,.346-1.443c.045-.516.065-1.035.068-1.564s0-1.048-.016-1.548a7.888,7.888,0,0,1,.082-1.381,2.576,2.576,0,0,1,.378-1.055,1.345,1.345,0,0,1,.862-.559,2.059,2.059,0,0,1,1.085,0,2.008,2.008,0,0,1,.808.479,2.834,2.834,0,0,1,.562.825,5.089,5.089,0,0,1,.348,1.017,3.664,3.664,0,0,1-.111,2.281l-.012-.012a2.7,2.7,0,0,1-1.736,1.433l.366,1.581a4.608,4.608,0,0,0,1.7-.808,3.657,3.657,0,0,0,1.012-1.273,4.1,4.1,0,0,0,.385-1.621,6.927,6.927,0,0,0-.186-1.848,6.805,6.805,0,0,0-.613-1.637,4.725,4.725,0,0,0-1-1.3,3.508,3.508,0,0,0-1.384-.763A3.42,3.42,0,0,0,87.363-202.645Z"/><rect class="b" width="18.062" height="1.231" transform="translate(77.478 -182.899) rotate(-5.106)"/><path class="b" d="M94.735-173.117l-12.9-.585-.408,8.958,1.446.069.326-7.248,4.464.207-.3,6.7,1.443.063.306-6.7,4.1.187-.322,7.186,1.443.066Z"/><path class="b" d="M93.023-154.387a7.11,7.11,0,0,0,.531-1.781,6.544,6.544,0,0,0,.05-1.74,4.593,4.593,0,0,0-.437-1.588,3.454,3.454,0,0,0-.987-1.236,3.337,3.337,0,0,0-1.607-.66,2.8,2.8,0,0,0-1.512.1,2.867,2.867,0,0,0-1.1.777,5.81,5.81,0,0,0-.8,1.214c-.227.463-.437.94-.634,1.426s-.385.967-.575,1.437a6.911,6.911,0,0,1-.632,1.242,2.7,2.7,0,0,1-.818.822,1.654,1.654,0,0,1-1.127.172,2.159,2.159,0,0,1-1.1-.47,2.139,2.139,0,0,1-.582-.869,3.334,3.334,0,0,1-.193-1.1,6.156,6.156,0,0,1,.078-1.167,5.49,5.49,0,0,1,.4-1.365,3.484,3.484,0,0,1,.75-1.1,2.792,2.792,0,0,1,2.518-.75l.263-1.607a4.539,4.539,0,0,0-2.079.092,3.993,3.993,0,0,0-1.578.914,5.107,5.107,0,0,0-1.081,1.548,7.384,7.384,0,0,0-.6,1.982,7.752,7.752,0,0,0-.084,1.788,5.156,5.156,0,0,0,.4,1.7,3.744,3.744,0,0,0,.989,1.365,3.22,3.22,0,0,0,1.663.735,2.982,2.982,0,0,0,2.814-.852,4.773,4.773,0,0,0,.865-1.205c.24-.465.46-.935.66-1.421s.391-.966.576-1.433a7.508,7.508,0,0,1,.594-1.248,2.59,2.59,0,0,1,.75-.833,1.347,1.347,0,0,1,1.008-.19,2.1,2.1,0,0,1,1.007.411,1.9,1.9,0,0,1,.566.752,2.743,2.743,0,0,1,.2.97,5.048,5.048,0,0,1-.063,1.071,3.638,3.638,0,0,1-.967,2.069l.02.009a2.689,2.689,0,0,1-2.154.667l-.26,1.6a4.5,4.5,0,0,0,1.877-.1,3.629,3.629,0,0,0,1.421-.792A4.259,4.259,0,0,0,93.023-154.387Z"/><path class="b" d="M89.084-138.872l2.807-9.934-1.394-.4-1.163,4.138L78.3-148.176l-.467,1.654,11.033,3.116-1.174,4.139Z"/><rect class="b" width="2.003" height="2.005" transform="translate(75.93 -140.697) rotate(-70.658)"/><path class="b" d="M71.87-130.985l1.243.549,2.668-6.015a2.424,2.424,0,0,1,.78.852A4.8,4.8,0,0,1,77-134.476a9.845,9.845,0,0,1,.244,1.306c.052.456.1.913.167,1.377s.159.927.259,1.385a5.727,5.727,0,0,0,.448,1.285,4.26,4.26,0,0,0,.782,1.108,3.9,3.9,0,0,0,1.27.848,3.716,3.716,0,0,0,1.578.355,3.322,3.322,0,0,0,1.4-.319,3.8,3.8,0,0,0,1.16-.877,4.878,4.878,0,0,0,.859-1.332,4.53,4.53,0,0,0,.418-1.792,3.648,3.648,0,0,0-.329-1.6,3.808,3.808,0,0,0-.993-1.3l0-.01a5.249,5.249,0,0,0-1.574-.914l-.622,1.4a4.724,4.724,0,0,1,1,.574,3.2,3.2,0,0,1,.752.819,2.439,2.439,0,0,1,.352,1.015,2.249,2.249,0,0,1-.211,1.165,2.776,2.776,0,0,1-.538.812,2.345,2.345,0,0,1-.747.53,2.4,2.4,0,0,1-.888.189,2.235,2.235,0,0,1-.945-.2,3.1,3.1,0,0,1-.989-.663,3.161,3.161,0,0,1-.61-.948,6.527,6.527,0,0,1-.374-1.278c-.092-.5-.181-1.056-.273-1.686a14.784,14.784,0,0,0-.256-1.52,5.921,5.921,0,0,0-.51-1.43,5.156,5.156,0,0,0-.953-1.3,6.677,6.677,0,0,0-1.611-1.158Z"/><path class="b" d="M75.086-126.613a10.444,10.444,0,0,0-1.374-.582,6.642,6.642,0,0,0-1.391-.322,3.753,3.753,0,0,0-1.348.075,3.368,3.368,0,0,0-1.261.645,4.854,4.854,0,0,0-.771.855h7.38C75.928-126.165,75.518-126.389,75.086-126.613Z"/><path class="b" d="M-102.578-130.84l-.749-1.548-11.621,5.621.4.825h1.846Z"/><path class="b" d="M-116.8-130.57l12.091-4.523-.569-1.522-9.7,3.626-.013-.036,7.344-9.944-.664-1.758-12.084,4.523.565,1.525,9.806-3.669.016.033-7.426,10.036Z"/><path class="b" d="M-121.693-144.575l12.583-2.87-.986-4.322a7.773,7.773,0,0,0-1.059-2.617,4.873,4.873,0,0,0-1.706-1.591,5.484,5.484,0,0,0-2.311-.62,10.319,10.319,0,0,0-2.892.289,6.07,6.07,0,0,0-4.155,2.6,6.441,6.441,0,0,0-.462,4.809Zm.273-6.855a3.273,3.273,0,0,1,.656-1.511,3.978,3.978,0,0,1,1.355-1.066,8.545,8.545,0,0,1,1.963-.684,7.585,7.585,0,0,1,2.041-.216,5.019,5.019,0,0,1,1.5.3,3.165,3.165,0,0,1,1.055.641,4.084,4.084,0,0,1,.7.83,4.3,4.3,0,0,1,.414.852c.088.28.158.513.2.7l.644,2.78-9.762,2.224-.644-2.818A5.311,5.311,0,0,1-121.42-151.43Z"/><rect class="b" width="12.912" height="1.719" transform="translate(-124.694 -160.169) rotate(-7.58)"/><path class="b" d="M-112.795-175.361l-12.667,5.625.082,1.9,13.123,4.437-.075-1.752-3.948-1.266-.247-5.458,3.817-1.585Zm-11.076,6.547v-.037l5.921-2.419.2,4.366Z"/><path class="b" d="M-108.319-182.992l-17.988-1.653-.116,1.219,17.989,1.66Z"/><path class="b" d="M-97.724-173.845A50.832,50.832,0,0,1-65.032-193.52c-.277-.369-.547-.742-.814-1.118A52.937,52.937,0,0,0-99.2-174.266l-.307.423.307.423A52.381,52.381,0,0,0-65.79-152.9c.355-.5.713-1,1.085-1.489A51.579,51.579,0,0,1-97.724-173.845Z"/><path class="b" d="M-1.209-191.49a49.7,49.7,0,0,1-4.221,6.527l-3.1,4.1,4.113-3.086a49.156,49.156,0,0,1,6.483-4.142,52.37,52.37,0,0,1,30.389-5.5q.568-.723,1.108-1.469a52.332,52.332,0,0,0-32.173,5.7c-1.119.594-2.218,1.232-3.31,1.932.724-1.114,1.385-2.234,2-3.375a52.888,52.888,0,0,0,5.572-31.727c-.39.287-.779.575-1.161.874A50.776,50.776,0,0,1-1.209-191.49Z"/><path class="b" d="M2.066-159.658a49.937,49.937,0,0,1-6.455-4.164l-4.106-3.1,3.093,4.109a48.836,48.836,0,0,1,4.2,6.553,51.526,51.526,0,0,1,5.49,30.239l.1.079H5.919a52.325,52.325,0,0,0-5.847-31c-.608-1.146-1.266-2.269-1.982-3.387,1.09.7,2.184,1.344,3.3,1.944a52.885,52.885,0,0,0,31.836,5.556c-.284-.382-.556-.774-.85-1.148A50.783,50.783,0,0,1,2.066-159.658Z"/><path class="b" d="M-32.222-158.382c1.118-.594,2.216-1.231,3.31-1.931-.724,1.115-1.385,2.234-2,3.375a52.873,52.873,0,0,0-5.657,31h1.041c.065-.05.127-.1.192-.154a50.776,50.776,0,0,1,5.7-30.164,49.891,49.891,0,0,1,4.219-6.53l3.1-4.1-4.109,3.087a48.919,48.919,0,0,1-6.482,4.143,51.533,51.533,0,0,1-30.377,5.474c-.387.492-.762.993-1.131,1.5A52.328,52.328,0,0,0-32.222-158.382Z"/><path class="b" d="M50.288-188.091h.007a50.033,50.033,0,0,1,16.588,14.184A50.832,50.832,0,0,1,34.2-154.235c.279.372.551.747.82,1.126A52.93,52.93,0,0,0,68.37-173.481l.306-.423-.306-.423a52.386,52.386,0,0,0-33.43-20.519c-.35.493-.7.985-1.068,1.466A52.32,52.32,0,0,1,50.288-188.091Z"/><path class="b" d="M-15.459-256.307A50.831,50.831,0,0,1,4.229-223.524c.375-.283.755-.556,1.136-.828A52.932,52.932,0,0,0-15.02-257.789l-.423-.3-.423.3A52.382,52.382,0,0,0-36.4-224.232c.495.349.988.7,1.472,1.069A51.569,51.569,0,0,1-15.459-256.307Z"/><path class="b" d="M-32.909-188.094a49.948,49.948,0,0,1,6.456,4.164l4.1,3.1-3.091-4.108a48.924,48.924,0,0,1-4.2-6.552,51.527,51.527,0,0,1-5.49-30.249c-.489-.382-.986-.751-1.487-1.115A52.329,52.329,0,0,0-30.9-190.808c.608,1.144,1.264,2.267,1.98,3.387-1.09-.7-2.184-1.345-3.3-1.944a52.879,52.879,0,0,0-31.81-5.56c.281.383.562.766.854,1.141A50.776,50.776,0,0,1-32.909-188.094Z"/><path class="b" d="M-37.934-171.474a49.926,49.926,0,0,1,7.6-1.632l5.093-.7-5.09-.729a48.888,48.888,0,0,1-7.514-1.654A51.527,51.527,0,0,1-63.18-193.784c-.619.076-1.236.166-1.852.264A52.332,52.332,0,0,0-38.26-174.808c1.206.375,2.44.695,3.706.975-1.3.275-2.557.6-3.8.975a52.9,52.9,0,0,0-26.351,18.466c.473.073.945.146,1.419.206A50.787,50.787,0,0,1-37.934-171.474Z"/><path class="b" d="M41.1-137.467v.007a49.949,49.949,0,0,1,2.089,11.518h1.432a52.445,52.445,0,0,0-9.6-27.167c-.6.1-1.194.2-1.793.284A52.308,52.308,0,0,1,41.1-137.467Z"/><path class="b" d="M-73.645-232.056a50.845,50.845,0,0,1,37.024,9.2c.064-.461.139-.919.216-1.378a52.932,52.932,0,0,0-37.987-9.175l-.515.083-.084.516a52.39,52.39,0,0,0,9.145,38.17c.6-.1,1.206-.2,1.812-.287A51.586,51.586,0,0,1-73.645-232.056Z"/><path class="b" d="M42.844-232.191a50.841,50.841,0,0,1-9.281,37.13c.46.065.919.138,1.377.215a52.931,52.931,0,0,0,9.258-38.1l-.084-.517-.515-.082a52.386,52.386,0,0,0-38.234,9.193c.1.6.2,1.209.287,1.817A51.581,51.581,0,0,1,42.844-232.191Z"/><path class="b" d="M-13.108-151.457a50.254,50.254,0,0,1-1.621-7.51l-.714-5.09-.717,5.09a48.743,48.743,0,0,1-1.667,7.6A51.514,51.514,0,0,1-35.336-126.1c.006.051.01.1.016.154h2.357a52.509,52.509,0,0,0,16.518-25c.384-1.244.714-2.5,1-3.8.273,1.263.59,2.492.954,3.706A52.88,52.88,0,0,0,2.4-125.942H4.279c0-.026.005-.052.009-.079A50.782,50.782,0,0,1-13.108-151.457Z"/><path class="b" d="M7.089-176.285a49.687,49.687,0,0,1-7.6,1.633l-5.093.707,5.09.726A48.711,48.711,0,0,1,7-171.567a52.363,52.363,0,0,1,25.376,17.594c.609-.075,1.217-.165,1.823-.262a52.334,52.334,0,0,0-26.778-18.72c-1.206-.377-2.44-.7-3.706-.977,1.3-.275,2.56-.6,3.8-.975A52.881,52.881,0,0,0,33.872-193.38c-.473-.07-.943-.154-1.417-.212A50.779,50.779,0,0,1,7.089-176.285Z"/><path class="b" d="M-17.737-196.3a49.786,49.786,0,0,1,1.621,7.51l.714,5.09.717-5.09a49.254,49.254,0,0,1,1.666-7.6,51.52,51.52,0,0,1,17.51-25.27c-.075-.623-.164-1.244-.262-1.863A52.329,52.329,0,0,0-14.4-196.818c-.385,1.242-.716,2.5-1,3.8-.275-1.266-.592-2.5-.956-3.706a52.88,52.88,0,0,0-18.582-26.439c-.072.474-.142.948-.2,1.424A50.783,50.783,0,0,1-17.737-196.3Z"/><path class="b" d="M-64.417-152.687q-.687-.1-1.373-.216a53,53,0,0,0-9.635,26.961h1.342A50.9,50.9,0,0,1-64.417-152.687Z"/><path class="b" d="M32.376-153.973c.294.374.566.766.85,1.148.6-.083,1.2-.181,1.793-.284-.269-.379-.541-.754-.82-1.126C33.593-154.138,32.985-154.048,32.376-153.973Z"/><path class="b" d="M-63.286-154.186c-.474-.06-.946-.133-1.419-.206-.372.489-.73.988-1.085,1.489q.686.117,1.373.216C-64.048-153.193-63.673-153.694-63.286-154.186Z"/><path class="b" d="M-35.134-221.739c.059-.476.129-.95.2-1.424-.484-.366-.977-.72-1.472-1.069-.077.459-.152.917-.216,1.378C-36.12-222.49-35.623-222.121-35.134-221.739Z"/><path class="b" d="M32.455-193.592c.474.058.944.142,1.417.212.366-.481.718-.973,1.068-1.466-.458-.077-.917-.15-1.377-.215Q33.021-194.317,32.455-193.592Z"/><path class="b" d="M4.279-125.942h.106l-.1-.079C4.284-125.994,4.282-125.968,4.279-125.942Z"/><path class="b" d="M-63.18-193.784c-.292-.375-.573-.758-.854-1.141-.606.083-1.21.183-1.812.287.267.376.537.749.814,1.118C-64.416-193.618-63.8-193.708-63.18-193.784Z"/><path class="b" d="M4.491-221.661c.382-.3.771-.587,1.161-.874-.083-.608-.183-1.213-.287-1.817-.381.272-.761.545-1.136.828C4.327-222.9,4.416-222.284,4.491-221.661Z"/><path class="b" d="M-35.528-125.942h.208c-.006-.051-.01-.1-.016-.154C-35.4-126.045-35.463-125.992-35.528-125.942Z"/><path class="b" d="M-112.7-125.942h-1.846l.35.724Z"/></g></svg>